# xmcd
#
# Track frame offsets:
#	150
#	10950
#	22400
#	31375
#	39850
#	51925
#
# Disc length: 793 seconds
#
# Revision: 1
# Processed by: cddbd v1.5.2PL0 Copyright (c) Steve Scherf et al.
# Submitted via: audiograbber 1.83.01
#
DISCID=47031706
DTITLE=Nashville Neurotics - Six Songs From W&B
DYEAR=1900
DGENRE=Country
TTITLE0=It Takes More Than A Preacher
TTITLE1=No Flowers Upon My Grave
TTITLE2=When Whiskey and Blood Runs Together
TTITLE3=Where Are You Spending The Night
TTITLE4=A Broken Heart and 7 Days
TTITLE5=Guess The Blues Moved In To Stay
EXTD=
EXTT0=
EXTT1=
EXTT2=
EXTT3=
EXTT4=
EXTT5=
PLAYORDER=
